<svg width="28" height="28" viewBox="0 0 28 28" fill="none" xmlns="http://www.w3.org/2000/svg">
<path fill-rule="evenodd" clip-rule="evenodd" d="M23.8649 13.9736C24.9653 12.9127 25.7125 11.5116 25.9326 9.95817C25.8581 9.99131 25.7831 10.023 25.7075 10.0533C25.6456 10.0781 25.5833 10.102 25.5207 10.1248C24.7062 10.4222 23.8309 10.5557 22.948 10.5085L22.9296 10.5074C21.3617 10.4191 19.8823 9.76685 18.7762 8.67612L18.7684 8.66841C17.7663 7.67681 17.1368 6.38845 16.9733 5.01255C16.9555 4.86264 16.9432 4.71169 16.9366 4.55997C16.9003 3.73109 17.0342 2.91114 17.3224 2.1457C15.0224 2.60829 13.1435 4.13264 12.2165 6.14626C16.035 6.80406 19.1596 9.62004 20.4111 13.3588C20.6052 13.3419 20.8017 13.3333 21 13.3333C22.0207 13.3333 22.9905 13.5621 23.8649 13.9736ZM10.1119 6.00738C11.3734 2.50795 14.7848 0 18.7954 0C19.7718 0 20.7127 0.14865 21.5957 0.424069C20.783 0.759268 20.0969 1.32884 19.6266 2.0458L19.6108 2.04407C19.148 2.76749 18.9164 3.61494 18.9541 4.47651C18.9584 4.57401 18.9661 4.67105 18.9771 4.76748C19.0849 5.70983 19.5128 6.59303 20.1967 7.27318L20.2045 7.2809C20.963 8.03151 21.9801 8.47926 23.0575 8.53691L23.0759 8.53785C23.7249 8.56988 24.3673 8.45895 24.958 8.21941C25.3423 8.06362 25.7046 7.85342 26.0326 7.59276L26.034 7.5944C26.6399 7.11088 27.1091 6.47078 27.3765 5.73752C27.7791 6.74903 27.9999 7.8493 27.9999 9C27.9999 11.3551 27.0748 13.4989 25.5604 15.103C27.054 16.4478 28 18.4415 28 20.6666C28 24.7167 24.866 27.9999 21 27.9999L21 28H10.5283V28L10.5 28C4.70101 28 0 23.0751 0 17C0 11.061 4.49271 6.22127 10.1119 6.00738ZM10.5534 25.9998L10.5 26C5.89224 26 2 22.0593 2 17C2 11.9407 5.89224 8 10.5 8C14.0862 8 17.2389 10.3871 18.4607 13.8307L18.4583 13.8316C18.6824 14.4624 18.8416 15.1268 18.9271 15.8158C19.5652 15.5047 20.2695 15.3333 21 15.3333C23.6747 15.3333 26 17.6324 26 20.6666C26 23.7008 23.6747 25.9999 21 25.9999L21 26H10.5534V25.9998Z" fill="white"/>
</svg>
