<svg width="24" height="24" viewBox="0 0 24 24" fill="none" xmlns="http://www.w3.org/2000/svg">
<path fill-rule="evenodd" clip-rule="evenodd" d="M23.5941 15.1089C24.0544 13.3912 24.1176 11.6606 23.84 10.0146C23.4684 11.2065 22.8053 12.2362 21.9501 13.0445L21.9492 13.0531C21.3091 13.6834 20.5546 14.1874 19.7251 14.5373C18.7932 14.9304 17.788 15.1201 16.7768 15.0935C15.7657 15.0669 14.7719 14.8248 13.8618 14.3833C12.9518 13.9417 12.1465 13.311 11.4999 12.5332C10.8532 11.7555 10.38 10.8486 10.112 9.87325C9.84399 8.89791 9.78731 7.87659 9.94574 6.87758C10.1042 5.87858 10.4741 4.92491 11.0307 4.08035C11.5499 3.29261 12.2204 2.61672 13.0025 2.09155C13.9999 1.3946 15.1723 0.955309 16.4087 0.839916C15.9887 0.674769 15.5551 0.531555 15.1088 0.411981C8.70722 -1.30332 2.12717 2.49567 0.411872 8.89726C-1.30343 15.2989 2.49556 21.8789 8.89715 23.5942C15.2987 25.3095 21.8788 21.5105 23.5941 15.1089ZM21.0491 16.2695C19.0285 20.5667 14.1628 22.9346 9.41479 21.6623C4.08013 20.2329 0.914305 14.7496 2.34372 9.4149C3.33087 5.73082 6.25142 3.0811 9.7212 2.26489C9.55689 2.47273 9.40129 2.68793 9.25495 2.90997C8.5317 4.00731 8.05108 5.24643 7.84522 6.54445C7.63936 7.84248 7.71301 9.1695 8.06125 10.4368C8.40948 11.704 9.02427 12.8824 9.86451 13.8929C10.7047 14.9035 11.7511 15.723 12.9335 16.2967C14.1159 16.8704 15.4072 17.185 16.721 17.2195C18.0348 17.2541 19.3408 17.0077 20.5517 16.4969C20.72 16.4259 20.8858 16.35 21.0491 16.2695ZM21.8634 4.61728L21.3389 3.00317L20.8145 4.61728L19.1173 4.61728L20.4904 5.61485L19.9659 7.22895L21.3389 6.23138L22.712 7.22895L22.1875 5.61485L23.5606 4.61728L21.8634 4.61728ZM15.3389 3.00317L15.8634 4.61728L17.5606 4.61728L16.1875 5.61485L16.712 7.22895L15.3389 6.23138L13.9659 7.22895L14.4904 5.61485L13.1173 4.61728L14.8145 4.61728L15.3389 3.00317ZM18.8634 8.61728L18.3389 7.00317L17.8145 8.61728L16.1173 8.61728L17.4904 9.61485L16.9659 11.229L18.3389 10.2314L19.712 11.229L19.1875 9.61485L20.5606 8.61728L18.8634 8.61728Z" fill="white"/>
</svg>
