<svg width="28" height="28" viewBox="0 0 28 28" fill="none" xmlns="http://www.w3.org/2000/svg">
<path fill-rule="evenodd" clip-rule="evenodd" d="M22.1145 11.312C23.6132 11.2633 25.0364 10.6543 26.099 9.60948C26.6466 9.06365 27.0864 8.41211 27.3841 7.68862C27.7867 8.84942 28.0052 10.095 28.0052 11.3911C28.0052 16.4915 24.621 20.809 19.9555 22.2606C19.9918 22.5035 20.0105 22.7522 20.0105 23.0053C20.0105 25.7681 17.7708 28.0079 15.0079 28.0079C14.9145 28.0079 14.8216 28.0053 14.7294 28.0002H7.51022V27.9988L7.50393 27.9988C3.35962 27.9988 0 24.671 0 20.5659C0 17.257 2.18285 14.4531 5.2 13.49C5.07208 12.8097 5.00519 12.1081 5.00519 11.3911C5.00519 5.09996 10.1539 0 16.5052 0C17.4024 0 18.2757 0.101782 19.1138 0.294325C18.4123 0.65945 17.7939 1.15913 17.2937 1.75857C16.3519 2.92001 15.89 4.39337 16.0034 5.88067C16.1186 7.39175 16.8186 8.80038 17.9574 9.81245C19.0961 10.8245 20.5854 11.3618 22.1145 11.312ZM7.16998 13.1403C7.28069 13.1355 7.39202 13.1331 7.50393 13.1331C10.7464 13.1331 13.5085 15.1701 14.5571 18.0227C14.7056 18.0094 14.856 18.0026 15.0079 18.0026C16.8078 18.0026 18.3857 18.9532 19.2669 20.3797C22.9191 19.2852 25.6293 16.0768 25.9692 12.2139C24.8287 12.8826 23.5275 13.2641 22.1808 13.3079C20.1322 13.3745 18.1367 12.6547 16.611 11.2987C15.0854 9.94273 14.1474 8.05542 13.9931 6.03086C13.8914 4.69604 14.1354 3.3696 14.687 2.17153C10.2985 3.0113 7.00519 6.8333 7.00519 11.3911C7.00519 11.9885 7.06177 12.5732 7.16998 13.1403ZM7.53015 25.9987L7.50393 25.9988C4.4462 25.9988 2 23.5485 2 20.5659C2 17.5833 4.4462 15.1331 7.50393 15.1331C9.87773 15.1331 11.883 16.6098 12.6612 18.6659L12.6664 18.6632C12.8892 19.2556 13.011 19.8968 13.011 20.5661C13.011 20.6331 13.0098 20.6998 13.0074 20.7661C13.5385 20.2913 14.2395 20.0026 15.0079 20.0026C16.6662 20.0026 18.0105 21.347 18.0105 23.0053C18.0105 24.6636 16.6662 26.0079 15.0079 26.0079H15.0052V26.0002H14.7923L14.7715 25.9987H10.9994L11.0005 26.0002H10.9932L10.992 25.9987H7.53015Z" fill="white"/>
</svg>
