<svg width="28" height="28" viewBox="0 0 28 28" fill="none" xmlns="http://www.w3.org/2000/svg">
<path fill-rule="evenodd" clip-rule="evenodd" d="M6 20.9107C2.44938 19.1323 0 15.3628 0 11C0 4.92487 4.74949 0 10.6083 0C13.4013 0 15.9422 1.11925 17.8366 2.9488C18.9587 0.724522 21.5197 -0.48567 24.0199 0.184712C24.3224 0.26584 24.612 0.371266 24.8871 0.498329C23.8142 0.672403 22.8941 1.46383 22.6104 2.58462C22.4703 3.13844 22.505 3.69555 22.6798 4.19761L22.6881 4.22877C22.7697 4.52588 22.9137 4.80214 23.1106 5.03907C23.2227 5.17396 23.3504 5.29434 23.4908 5.39783C23.813 5.67873 24.2044 5.89018 24.647 6.00239C26.0002 6.34539 27.3727 5.64442 27.9137 4.4062C28.0538 5.16703 28.0311 5.9702 27.8176 6.76719C27.4797 8.02931 26.7198 9.06556 25.7306 9.76469C27.1228 11.047 28 12.9172 28 15C28 17.8501 26.3573 20.3025 24 21.3944V19.0745C25.1984 18.1797 26 16.7105 26 15C26 12.1696 23.8053 10 21.2493 10C20.5272 10 19.8339 10.1732 19.2108 10.4855C19.1791 9.90367 19.0937 9.33674 18.9599 8.78992L18.9569 8.79115C18.0091 4.85004 14.5839 2 10.6083 2C5.92179 2 2 5.96046 2 11C2 14.2291 3.61019 17.0152 6 18.6003V20.9107ZM23.8297 8.52957C24.2261 8.378 24.5919 8.15259 24.906 7.86539C24.8252 7.86793 24.7442 7.86815 24.6632 7.86602C24.0642 7.85027 23.4755 7.70672 22.9363 7.44498C22.3972 7.18323 21.9202 6.80932 21.5371 6.34824C21.154 5.88717 20.8737 5.34956 20.7149 4.77136C20.5561 4.19316 20.5225 3.5877 20.6164 2.99547C20.6368 2.86651 20.6632 2.73883 20.6954 2.61281C20.0689 3.05176 19.5872 3.70543 19.3737 4.50308C19.3539 4.5769 19.3367 4.6508 19.3221 4.72469C19.9865 5.71475 20.4979 6.8234 20.821 8.01387C20.9626 8.00467 21.1054 8.00001 21.2493 8.00001C22.1632 8.00001 23.0347 8.18832 23.8297 8.52957ZM17.4251 17.9798C17.2571 18.2708 16.9287 18.3237 16.719 18.2026C16.5093 18.0815 16.3908 17.7705 16.5588 17.4794C16.7729 17.1084 17.2154 16.6896 17.7995 16.2764C17.7808 16.5091 17.7551 16.7356 17.721 16.9505C17.6353 17.4894 17.5171 17.8204 17.4251 17.9798ZM19.7192 13.0041C19.7192 13.0041 18.8367 13.3377 17.7944 13.9217C16.7047 14.5322 15.4402 15.4164 14.8269 16.4792C14.124 17.697 14.5235 19.2442 15.7192 19.9348C16.915 20.6254 18.4541 20.1979 19.157 18.9801C19.7159 18.0116 19.8441 16.4225 19.8392 15.1264C19.8347 13.9432 19.7192 13.0041 19.7192 13.0041ZM10.8223 18.9975C10.6543 19.2885 10.3258 19.3414 10.1161 19.2203C9.90643 19.0992 9.78796 18.7882 9.95592 18.4971C10.17 18.1261 10.6126 17.7073 11.1966 17.2941C11.178 17.5268 11.1522 17.7533 11.1181 17.9682C11.0325 18.5071 10.9142 18.8381 10.8223 18.9975ZM13.1164 14.0218C13.1164 14.0218 12.2339 14.3554 11.1916 14.9394C10.1018 15.5499 8.83739 16.4341 8.22402 17.4969C7.52113 18.7147 7.92065 20.2619 9.11639 20.9525C10.3121 21.6431 11.8513 21.2156 12.5541 19.9978C13.1131 19.0293 13.2413 17.4402 13.2363 16.1441C13.2318 14.9609 13.1164 14.0218 13.1164 14.0218ZM18.9732 24.3356C19.1829 24.4567 19.5113 24.4038 19.6793 24.1128C19.7713 23.9534 19.8895 23.6224 19.9752 23.0835C20.0093 22.8687 20.0351 22.6421 20.0537 22.4094C19.4696 22.8226 19.0271 23.2415 18.813 23.6125C18.645 23.9035 18.7635 24.2145 18.9732 24.3356ZM20.0486 20.0547C21.0909 19.4707 21.9734 19.1371 21.9734 19.1371C21.9734 19.1371 22.0889 20.0762 22.0934 21.2594C22.0983 22.5556 21.9701 24.1446 21.4112 25.1131C20.7083 26.331 19.1692 26.7584 17.9734 26.0678C16.7777 25.3772 16.3782 23.8301 17.0811 22.6122C17.6944 21.5494 18.9589 20.6653 20.0486 20.0547ZM12.961 25.7147C12.793 26.0057 12.4645 26.0586 12.2549 25.9375C12.0452 25.8164 11.9267 25.5054 12.0947 25.2144C12.3088 24.8433 12.7513 24.4245 13.3354 24.0113C13.3167 24.244 13.291 24.4706 13.2568 24.6854C13.1712 25.2243 13.053 25.5553 12.961 25.7147ZM15.2551 20.739C15.2551 20.739 14.3726 21.0726 13.3303 21.6566C12.2406 22.2671 10.9761 23.1513 10.3628 24.2141C9.65986 25.432 10.0594 26.9791 11.2551 27.6697C12.4509 28.3603 13.99 27.9329 14.6929 26.715C15.2518 25.7465 15.38 24.1574 15.3751 22.8613C15.3706 21.6781 15.2551 20.739 15.2551 20.739Z" fill="white"/>
</svg>
